<svg width="1000mm" height="1000mm" viewBox="0 0 1000 1000" xml:space="preserve" xmlns="http://www.w3.org/2000/svg">
  <g stroke-linecap="round">
    <path d="M101.176 452.699c-1.164.28-11.23 62.422-46.174 59.584m46.174-33.182c-1.164.28-11.23 62.418-46.174 59.58m46.174-33.182c-1.164.28-11.23 62.422-46.174 59.584m46.067-138.787c1.169.28 11.23 62.423 46.174 59.584m-46.174-33.18c1.169.275 11.23 62.417 46.174 59.579m-46.174-33.182c1.169.28 11.23 62.423 46.174 59.584m-46.174-33.187c1.169.281 11.23 62.423 46.174 59.585m-92.236-79.203c34.943 2.839 45.005-59.303 46.174-59.584l-.648 281.336M228.39 351.315c-1.46.337-14.049 74.955-57.772 71.55m57.772-39.848c-1.46.337-14.049 74.955-57.772 71.55m57.772-39.844c-1.46.337-14.049 74.955-57.772 71.55m57.64-166.649c1.46.337 14.048 74.955 57.771 71.55m-57.772-39.849c1.46.337 14.049 74.956 57.772 71.55m-57.772-39.848c1.46.337 14.049 74.955 57.772 71.55m-57.772-39.849c1.46.342 14.049 74.956 57.772 71.55m-115.411-95.104c43.723 3.41 56.317-71.213 57.772-71.55l-.807 337.817" fill="none" stroke="#000" stroke-linejoin="round" stroke-width="35.6"/>
    <g fill="none" stroke="#126d12" stroke-linejoin="round">
      <path d="M101.176 452.699c-1.164.28-11.23 62.422-46.174 59.584m46.174-33.182c-1.164.28-11.23 62.418-46.174 59.58m46.174-33.182c-1.164.28-11.23 62.422-46.174 59.584m46.067-138.787c1.169.28 11.23 62.423 46.174 59.584m-46.174-33.18c1.169.275 11.23 62.417 46.174 59.579m-46.174-33.182c1.169.28 11.23 62.423 46.174 59.584m-46.174-33.187c1.169.281 11.23 62.423 46.174 59.585m-92.236-79.203c34.943 2.839 45.005-59.303 46.174-59.584l-.648 281.336" stroke-width="13.783"/>
      <path d="M228.39 351.315c-1.46.337-14.049 74.955-57.772 71.55m57.772-39.848c-1.46.337-14.049 74.955-57.772 71.55m57.772-39.844c-1.46.337-14.049 74.955-57.772 71.55m57.64-166.649c1.46.337 14.048 74.955 57.771 71.55m-57.772-39.849c1.46.337 14.049 74.956 57.772 71.55m-57.772-39.848c1.46.337 14.049 74.955 57.772 71.55m-57.772-39.849c1.46.342 14.049 74.956 57.772 71.55m-115.411-95.104c43.723 3.41 56.317-71.213 57.772-71.55l-.807 337.817" stroke-width="14.294"/>
    </g>
    <path d="M14.51 619.07A496.8 432.8 0 0 0 496.63 949.7a496.8 432.8 0 0 0 482.12-330.63z" fill="#a3be8c" stroke="#000" stroke-width="22.033"/>
  </g>
  <path d="m988.3 614.55-181.38-3.079-85.76-214.54 90.303-192.62z" fill="#81a1c1"/>
  <path d="m722.01 401.1 83.29 208.95 39.36-1.129-40.135-229.92-52.482-49.694z" fill="#5e81ac"/>
  <path d="m862.27 334.66-54.033 64.952-56.208-67.971 56.987-132.7z" fill="#eceff4"/>
  <path transform="matrix(3.8767 0 0 3.9882 235.68 -167.9)" d="m125.63 141.13 22.175-50.374 46.851 106.22-48.004-1.254m1.127-53.314 14.46-17.537m-29.884.701 14.918 16.715 10.062 54.086" fill="none" stroke="#000" stroke-linecap="round" stroke-linejoin="round" stroke-width="5"/>
  <path d="m684.99 686.58-27.598-209.44 153.01 130.68z" fill="#3b5b82"/>
  <path d="M798.3 604.5 667.67 499.29l-107.6-77.129 7.21-176.32 61.888-60.662" fill="#5e81ac"/>
  <path d="m570.84 259.16 58.018-69.431-55.305-127.81-7.722 198.59" fill="#d8dee9"/>
  <path d="m490.4 261.99 81.91-4.451-.058-185.78" fill="#eceff4"/>
  <path d="m690.73 684.74-23.057-186.11-95.114-76.754-.298-164.42-83.84.34-67.796 150.02-83.077 211.71z" fill="#81a1c1"/>
  <path transform="matrix(3.8767 0 0 3.9882 235.68 -167.9)" d="m48.478 142.8 38.7-88.171 60.444 141.37-29.593 17.7-50.826-9.046m44.86-37.467 5.543 45.382M87.289 58.648l-.53 88.476 59.908 47.645" fill="none" stroke="#000" stroke-linecap="round" stroke-linejoin="round" stroke-width="5"/>
  <path d="m536.98 804.28 117.22-.684-179.08-360.23-120.71-32.646z" fill="#553715"/>
  <path transform="matrix(5.5772 0 0 6.2183 14.849 -446.97)" d="m93.618 201.22 21.017-.11-32.11-57.931-21.643-5.25z" fill="none" stroke="#000" stroke-linecap="round" stroke-linejoin="round" stroke-width="2"/>
  <path d="m196.08 804.4 158.26-337.57L511.83 804l25.577.149-183.47-392.96-182.71 391.94z" fill="#553715"/>
  <path transform="matrix(5.5772 0 0 6.2183 14.849 -446.97)" d="m32.495 201.24 28.376-54.287 28.238 54.222 4.586.024-32.896-63.194-32.76 63.03z" fill="none" stroke="#000" stroke-linecap="round" stroke-linejoin="round" stroke-width="2"/>
  <path d="m196.77 803.34 157.31-337.18 158.58 337.58z" fill="#ab7628"/>
  <g stroke-linecap="round" stroke-linejoin="round">
    <path transform="matrix(5.5772 0 0 6.2183 14.849 -446.97)" d="m84.019 191.45-.076 9.606m-3.557-16.565-.084 16.516m-3.52-17.837-.072 17.932m-3.416-17.872-.033 17.818m-3.49-17.853-.034 17.86m-18.11-17.799.003 17.782m-3.483-17.8-.071 17.763m-3.457-17.805-.07 17.792m-2.664-17.779 37.81-.114M41.13 184.79l-.053 16.238m-3.555-9.317-.037 9.282m-4.867.066 28.206-54.223 28.434 54.29z" fill="none" stroke="#000" stroke-width="2"/>
    <path d="M324.14 692.97h60.189v111.97h-60.19z" fill="#c4503d"/>
    <path d="M373.06 760.19a4.183 4.664 0 0 1-4.182 4.663 4.183 4.664 0 0 1-4.183-4.663 4.183 4.664 0 0 1 4.183-4.664 4.183 4.664 0 0 1 4.182 4.664"/>
    <path transform="matrix(5.5772 0 0 6.2183 14.849 -446.97)" d="M55.457 183.32h10.792v18.006H55.457z" fill="none" stroke="#000" stroke-width="2"/>
    <path d="M354.5 572.893a30.675 31.807 0 0 0-30.674 31.807 30.675 31.807 0 0 0 .1 1.43v36.129h61.238v-37.391a30.675 31.807 0 0 0 .011-.168 30.675 31.807 0 0 0-.011-.485v-.466h-.011a30.675 31.807 0 0 0-30.653-30.856" fill="#95c3d5"/>
    <path transform="matrix(5.5772 0 0 6.2183 14.849 -446.97)" d="m55.451 170.24 10.933-.042m-5.518-6.13-.04 11.033m.074-11.086a5.5 5.115 0 0 0-5.5 5.115 5.5 5.115 0 0 0 .017.23v5.81h10.98v-6.013a5.5 5.115 0 0 0 .002-.027 5.5 5.115 0 0 0-.002-.078v-.075h-.002a5.5 5.115 0 0 0-5.496-4.962z" fill="none" stroke="#000" stroke-width="2"/>
  </g>
</svg>
